<?xml version="1.0" standalone="no"?>
<!DOCTYPE svg PUBLIC "-//W3C//DTD SVG 20010904//EN"
 "http://www.w3.org/TR/2001/REC-SVG-20010904/DTD/svg10.dtd">
<svg version="1.0" xmlns="http://www.w3.org/2000/svg"
 width="300.000000pt" height="225.000000pt" viewBox="0 0 300.000000 225.000000"
 preserveAspectRatio="xMidYMid meet">
<metadata>
Created by potrace 1.10, written by Peter Selinger 2001-2011
</metadata>
<g transform="translate(0.000000,225.000000) scale(0.100000,-0.100000)"
fill="#000000" stroke="none">
<path d="M1093 1971 c-17 -11 -51 -46 -74 -78 -24 -32 -60 -76 -81 -98 -21
-22 -38 -43 -38 -47 0 -3 -30 -9 -67 -13 -90 -9 -129 -22 -151 -50 -10 -13
-35 -30 -55 -38 -44 -19 -67 -61 -67 -122 0 -82 54 -114 218 -132 28 -3 52 -8
52 -10 0 -3 -11 -14 -25 -25 -17 -13 -25 -29 -25 -51 0 -26 -8 -36 -40 -57
-51 -31 -94 -91 -85 -119 8 -28 37 -27 88 3 66 38 79 37 81 -5 3 -46 41 -120
80 -158 37 -35 123 -71 171 -71 50 0 140 37 174 70 23 23 30 26 35 15 8 -23
141 -21 150 2 6 14 9 14 23 -6 24 -35 130 -81 183 -80 93 1 180 55 220 137
l25 51 197 1 198 0 6 26 c5 21 11 24 28 19 56 -18 64 -17 80 7 13 20 14 37 6
106 -11 99 -28 127 -78 136 -48 8 -117 8 -176 0 -43 -6 -51 -12 -87 -60 -33
-44 -45 -54 -70 -54 -26 0 -29 3 -23 24 3 14 3 30 -1 37 -4 6 -7 53 -6 104 2
86 0 94 -24 122 -15 16 -46 74 -71 128 -24 55 -54 110 -67 123 -12 13 -68 46
-124 73 -77 35 -103 52 -103 66 0 40 -16 43 -234 43 -191 0 -214 -2 -243 -19z
m437 -1 c10 -5 21 -21 24 -34 5 -20 27 -35 109 -74 57 -27 113 -60 125 -72 12
-13 38 -64 59 -114 21 -49 48 -102 61 -118 l24 -28 -105 0 c-83 0 -114 4 -148
20 -40 18 -66 20 -275 20 l-231 0 -88 35 c-48 19 -112 40 -141 46 -30 7 -54
17 -54 23 1 23 26 65 65 110 38 43 43 46 91 46 41 0 55 5 74 25 23 25 26 25
181 25 144 0 159 2 171 19 8 10 25 21 38 23 31 4 33 32 4 36 -15 2 -29 -7 -44
-27 l-21 -31 -153 0 c-149 0 -154 -1 -180 -25 -26 -24 -96 -36 -96 -17 0 4 20
30 44 57 l43 50 194 6 c107 3 198 6 202 7 5 1 17 -2 27 -8z m-686 -260 c-11
-11 -132 -26 -121 -15 4 5 26 12 50 16 65 10 82 10 71 -1z m30 -22 c-8 -30 -9
-30 -28 -26 -15 3 -15 5 -1 26 9 12 21 22 26 22 6 0 7 -9 3 -22z m-59 -18 c-3
-5 -34 -10 -68 -9 -46 1 -56 3 -37 9 37 12 112 12 105 0z m-90 -39 c-6 -6 -35
-13 -65 -16 -51 -6 -54 -5 -36 9 21 17 117 23 101 7z m246 -7 c71 -21 72 -22
50 -45 -27 -29 -45 -102 -38 -157 l6 -49 -107 19 c-59 11 -117 21 -130 24 -44
9 -56 107 -22 182 l19 42 84 0 c47 0 107 -7 138 -16z m-270 -51 c-5 -20 -14
-28 -29 -27 -88 3 -93 4 -90 21 3 18 38 30 95 32 29 1 31 -1 24 -26z m418 -2
c27 -11 83 -36 124 -56 66 -32 88 -37 193 -45 74 -6 121 -15 126 -23 10 -15
10 -39 0 -53 -10 -16 -535 -27 -551 -11 -25 25 -6 150 30 194 15 17 19 17 78
-6z m556 -41 c37 -16 69 -20 156 -20 l110 0 -3 -77 -3 -78 -285 -1 c-157 0
-241 2 -187 5 82 5 101 9 113 25 19 26 18 49 -3 75 -16 19 -33 23 -135 31 -80
6 -131 15 -162 29 -26 11 -46 22 -46 25 0 3 90 6 199 6 177 0 205 -2 246 -20z
m-1007 -6 c15 -4 22 -14 22 -30 0 -27 -5 -28 -65 -13 -28 7 -45 17 -48 30 -4
16 0 19 31 19 21 0 47 -3 60 -6z m-20 -65 c47 -12 70 -24 61 -34 -8 -7 -107
24 -114 35 -8 13 -4 12 53 -1z m1667 -95 c-5 -2 -35 -8 -65 -13 -49 -9 -47 -9
26 -4 77 5 82 4 89 -16 9 -29 -1 -41 -34 -41 -16 0 -53 -17 -87 -40 -33 -22
-63 -40 -68 -40 -4 0 -17 11 -28 25 -38 49 -118 23 -118 -38 0 -32 24 -67 47
-67 7 0 13 -4 13 -10 0 -5 -22 -10 -49 -10 -48 0 -49 0 -56 37 -4 24 -3 39 4
41 6 2 11 16 11 32 0 20 6 31 19 35 11 3 35 27 54 53 32 46 36 48 78 45 35 -2
39 -1 19 6 -18 6 1 9 65 9 50 0 86 -1 80 -4z m-665 -31 l295 -8 3 -22 3 -23
-575 0 c-561 0 -576 0 -576 19 0 54 -9 52 284 46 149 -3 404 -8 566 -12z m734
-110 c5 -44 3 -60 -8 -72 -14 -13 -19 -13 -50 1 -70 34 -153 36 -126 4 6 -8
25 -18 41 -21 55 -12 29 -25 -51 -25 -44 0 -80 3 -80 6 0 3 11 15 25 26 14 11
25 26 25 34 0 8 6 14 13 14 7 0 35 14 63 32 47 30 107 57 130 58 6 0 14 -25
18 -57z m-1566 -6 c2 -21 -1 -37 -7 -37 -6 0 -11 8 -11 19 0 10 -7 24 -15 31
-18 15 -10 32 13 28 12 -2 18 -15 20 -41z m1122 4 c0 -26 -5 -41 -16 -45 -9
-3 -116 -6 -239 -6 -220 0 -224 0 -239 -22 -9 -12 -16 -39 -16 -59 0 -20 -3
-51 -6 -68 -6 -30 -7 -31 -65 -31 -65 0 -62 -4 -73 93 -11 91 -1 87 -221 87
-106 0 -200 3 -209 6 -11 4 -16 19 -16 45 l0 39 550 0 550 0 0 -39z m41 27 c2
-22 -2 -43 -12 -52 -5 -6 -9 4 -9 27 0 33 18 55 21 25z m159 -38 c14 -26 -27
-75 -56 -66 -45 14 -52 75 -11 94 26 11 52 0 67 -28z m-1365 -2 c14 -21 14
-24 -1 -35 -14 -10 -21 -8 -40 10 -16 16 -20 25 -12 34 16 19 35 16 53 -9z
m-57 -30 c19 -19 14 -37 -13 -44 -34 -8 -41 1 -25 31 15 28 21 30 38 13z
m1253 -42 c18 -19 8 -26 -36 -26 -39 0 -45 3 -45 20 0 11 8 23 18 26 9 3 24 9
32 13 10 6 16 3 18 -8 2 -9 8 -20 13 -25z m-1103 0 c2 -9 1 -25 -3 -34 -5 -14
-7 -14 -15 -2 -14 22 -12 62 3 58 6 -3 14 -12 15 -22z m42 9 c10 -12 8 -22
-11 -53 l-24 -37 48 -48 c37 -37 47 -43 47 -28 0 11 -18 35 -40 54 -36 30 -38
36 -26 52 13 18 14 18 20 -3 4 -13 18 -30 32 -38 14 -10 24 -27 25 -43 1 -17
3 -20 6 -8 3 13 10 16 26 10 12 -4 34 -7 49 -8 30 0 84 -47 74 -63 -11 -18
-118 -7 -169 18 -55 26 -131 122 -102 128 10 2 15 16 15 43 0 41 9 49 30 24z
m167 2 c11 -1 19 -6 16 -10 -3 -5 -16 -6 -30 -2 -16 4 -22 2 -18 -5 11 -18 54
-11 65 10 14 26 60 27 60 1 0 -24 -42 -69 -73 -76 -34 -9 -94 20 -112 54 -8
14 -14 21 -15 16 0 -6 7 -21 16 -33 9 -13 11 -22 4 -22 -6 0 -17 15 -25 33 -8
17 -14 26 -15 18 0 -29 44 -79 81 -91 35 -12 54 -11 107 5 32 10 28 -10 -5
-23 -46 -18 -107 -8 -147 23 -42 32 -56 54 -56 87 0 22 3 23 63 21 34 -2 72
-4 84 -6z m143 -16 c0 -17 -10 -42 -24 -58 -30 -35 -46 -24 -17 13 11 15 21
32 21 38 -1 6 -8 -2 -16 -17 -9 -16 -17 -27 -20 -25 -8 9 21 68 36 72 8 2 16
4 18 5 1 0 2 -12 2 -28z m387 7 c26 -23 46 -23 68 2 20 22 65 27 65 8 0 -9 4
-8 10 2 8 13 10 12 11 -5 1 -17 2 -17 6 -2 8 30 24 18 18 -14 -8 -42 -23 -63
-67 -92 -83 -54 -200 -5 -222 93 -5 24 -3 25 43 25 32 0 55 -6 68 -17z m238
12 c4 -6 11 -8 16 -5 16 11 15 -37 -3 -72 -18 -35 -27 -27 -17 15 11 48 11 52
0 52 -6 0 -13 -20 -17 -45 -5 -36 -10 -45 -26 -45 -15 0 -18 4 -13 18 4 9 10
31 13 47 6 39 33 58 47 35z m-585 -33 c0 -42 -12 -67 -31 -67 -18 0 -19 2 -4
30 9 17 13 35 10 40 -8 13 4 32 16 25 5 -4 9 -16 9 -28z m211 -10 c-17 -17
-13 -31 4 -17 10 9 15 9 15 1 0 -6 14 -25 30 -43 21 -22 30 -41 30 -64 0 -45
-19 -44 -70 4 -37 36 -56 73 -28 55 30 -18 68 -57 68 -70 0 -8 5 -11 10 -8 16
10 12 17 -35 68 -46 48 -56 82 -32 106 10 10 13 9 15 -4 2 -10 -1 -22 -7 -28z
m-380 -53 c19 3 28 2 24 -4 -13 -21 -115 -2 -115 21 0 4 14 1 31 -8 18 -9 42
-13 60 -9z m179 -22 c0 -25 -78 -92 -109 -92 -17 0 -13 20 7 27 9 4 26 15 36
25 11 10 23 18 28 18 4 0 8 5 8 10 0 17 -16 11 -62 -24 -34 -26 -48 -32 -57
-23 -15 15 -14 27 3 27 8 0 24 9 37 20 24 19 109 29 109 12z m561 -9 c-27 -51
-115 -99 -188 -102 -36 -1 -89 16 -79 26 10 11 90 3 97 -9 4 -6 12 -7 19 -3
23 14 -20 35 -72 35 -42 0 -48 3 -48 21 0 17 4 19 23 13 12 -4 34 -8 50 -9 15
-1 38 -12 52 -25 l25 -23 37 29 c21 17 47 34 58 39 17 7 18 9 3 12 -18 5 -98
-44 -98 -60 0 -5 -7 -4 -15 3 -22 18 -19 26 15 40 17 7 30 16 30 21 0 5 23 9
50 9 45 0 50 -2 41 -17z"/>
<path d="M1135 1771 c-35 -15 -59 -50 -59 -88 0 -92 132 -80 150 14 6 32 3 40
-20 60 -29 25 -39 27 -71 14z m59 -27 c22 -21 20 -46 -5 -78 -26 -33 -73 -36
-89 -6 -14 27 -5 55 27 80 31 24 46 25 67 4z"/>
<path d="M1531 1437 c-12 -15 -5 -47 9 -47 5 0 12 9 15 21 9 27 -8 45 -24 26z"/>
<path d="M2173 1294 c-8 -22 15 -44 26 -25 10 16 4 41 -10 41 -5 0 -12 -7 -16
-16z"/>
<path d="M2072 1218 c-19 -19 -14 -46 9 -53 30 -10 58 19 43 43 -14 22 -36 26
-52 10z m46 -21 c4 -20 -25 -34 -40 -19 -15 15 -1 44 19 40 10 -2 19 -11 21
-21z"/>
<path d="M990 962 c0 -5 23 -10 52 -11 28 -1 57 -6 65 -12 9 -8 13 -8 13 -1 0
6 -9 16 -19 22 -23 12 -111 14 -111 2z"/>
<path d="M1540 1119 c0 -6 -4 -7 -10 -4 -17 11 -10 -9 13 -36 26 -30 77 -53
104 -46 13 3 11 5 -7 6 -49 3 -49 17 0 17 31 0 45 -3 37 -9 -7 -5 -2 -6 13 -2
26 7 70 49 70 67 0 5 -9 0 -21 -13 -19 -23 -20 -23 -10 -2 17 33 13 34 -18 2
-23 -23 -38 -29 -71 -29 -33 0 -48 6 -71 29 -16 16 -29 25 -29 20z"/>
<path d="M1490 535 c0 -170 4 -265 10 -265 6 0 10 95 10 265 0 170 -4 265 -10
265 -6 0 -10 -95 -10 -265z"/>
<path d="M990 725 c0 -8 9 -15 20 -15 29 0 80 -24 115 -54 l30 -26 -25 -20
c-47 -40 -85 -60 -112 -60 -14 0 -28 -6 -31 -12 -7 -21 -73 20 -93 59 l-19 34
25 19 c14 11 40 25 58 31 31 10 44 29 20 29 -19 -1 -89 -35 -117 -58 -31 -25
-23 -48 34 -101 41 -38 95 -56 95 -32 0 4 20 11 44 13 26 3 63 18 91 37 37 25
50 29 66 21 10 -6 19 -15 19 -19 0 -13 -118 -57 -172 -65 -32 -5 -48 -12 -48
-22 0 -11 23 -14 125 -14 l125 0 0 135 0 135 -125 0 c-104 0 -125 -2 -125 -15z
m218 -62 c4 -56 -13 -55 -55 2 l-31 43 41 -2 c42 -1 42 -1 45 -43z"/>
<path d="M990 676 c0 -8 -10 -16 -22 -19 -13 -4 -31 -12 -42 -20 -15 -11 -17
-17 -7 -35 16 -30 63 -61 69 -44 2 6 14 12 28 12 13 0 38 13 56 29 29 26 31
30 18 46 -15 18 -69 45 -90 45 -5 0 -10 -6 -10 -14z m64 -31 c20 -15 20 -15 0
-30 -17 -13 -20 -12 -33 5 -20 30 -31 24 -31 -15 0 -40 -12 -45 -34 -13 -17
23 -6 48 20 48 8 0 14 5 14 10 0 15 42 11 64 -5z"/>
<path d="M1663 604 c-8 -21 13 -42 28 -27 13 13 5 43 -11 43 -6 0 -13 -7 -17
-16z"/>
<path d="M1732 607 c-10 -11 -9 -17 3 -27 24 -20 45 4 24 26 -14 13 -17 13
-27 1z"/>
<path d="M1803 609 c-14 -14 -6 -39 12 -39 18 0 26 27 11 39 -9 7 -16 7 -23 0z"/>
<path d="M1890 523 c0 -78 3 -93 16 -93 12 0 15 9 12 37 -4 55 24 57 52 4 11
-23 27 -41 35 -41 19 0 19 3 -5 42 -19 32 -19 32 0 45 23 16 27 65 8 81 -7 5
-37 12 -66 13 l-52 4 0 -92z m95 37 c0 -19 -6 -26 -23 -28 -38 -6 -50 4 -44
33 4 22 9 26 36 23 26 -2 31 -7 31 -28z"/>
<path d="M2089 607 c-45 -35 -52 -110 -14 -151 30 -32 56 -33 91 -3 23 20 27
32 27 72 0 40 -4 52 -27 72 -30 25 -53 29 -77 10z m70 -49 c11 -20 13 -34 6
-54 -23 -65 -78 -56 -83 13 -5 70 46 97 77 41z"/>
<path d="M2253 605 c-25 -18 -30 -57 -10 -72 6 -6 26 -15 42 -20 37 -12 42
-46 7 -51 -13 -2 -29 2 -37 8 -14 12 -35 6 -35 -9 0 -15 59 -33 85 -27 30 8
48 39 40 67 -4 12 -26 29 -51 39 -32 14 -42 23 -38 35 7 17 27 19 54 5 13 -7
21 -7 26 1 17 27 -51 47 -83 24z"/>
<path d="M1663 534 c-8 -21 13 -42 28 -27 13 13 5 43 -11 43 -6 0 -13 -7 -17
-16z"/>
<path d="M1733 534 c-7 -19 11 -39 26 -30 16 10 13 33 -4 40 -9 3 -18 -1 -22
-10z"/>
<path d="M1801 536 c-9 -10 -8 -16 3 -25 10 -9 16 -8 25 3 9 10 8 16 -3 25
-10 9 -16 8 -25 -3z"/>
<path d="M1663 464 c-8 -21 13 -42 28 -27 13 13 5 43 -11 43 -6 0 -13 -7 -17
-16z"/>
<path d="M1731 466 c-9 -10 -8 -16 4 -26 19 -16 41 1 32 24 -8 20 -21 20 -36
2z"/>
<path d="M1797 466 c-8 -20 16 -39 30 -25 14 14 6 39 -12 39 -7 0 -15 -6 -18
-14z"/>
<path d="M800 375 c0 -42 3 -55 15 -55 11 0 15 11 15 40 0 33 3 40 20 40 21 0
23 -7 20 -52 -1 -20 3 -28 14 -28 12 0 16 11 16 45 0 50 -16 65 -69 65 -31 0
-31 0 -31 -55z"/>
<path d="M910 422 c0 -5 7 -30 16 -56 13 -38 20 -46 37 -44 14 2 24 16 33 48
17 57 17 60 0 60 -9 0 -17 -15 -21 -40 -8 -47 -20 -45 -29 5 -4 21 -13 35 -21
35 -8 0 -15 -4 -15 -8z"/>
<path d="M1030 386 c0 -25 0 -49 0 -53 0 -5 5 -8 11 -8 7 0 12 19 12 50 0 28
-5 51 -12 53 -7 2 -11 -12 -11 -42z"/>
<path d="M1070 375 l0 -55 34 0 c40 0 66 22 66 55 0 33 -26 55 -66 55 l-34 0
0 -55z m70 0 c0 -18 -5 -25 -20 -25 -15 0 -20 7 -20 25 0 18 5 25 20 25 15 0
20 -7 20 -25z"/>
<path d="M1181 375 c0 -41 4 -55 15 -55 10 0 14 14 14 55 0 41 -4 55 -14 55
-11 0 -15 -14 -15 -55z"/>
<path d="M1243 378 c-20 -51 -15 -74 10 -49 14 14 57 15 57 1 0 -5 7 -10 15
-10 20 0 19 8 -5 64 -29 63 -51 62 -77 -6z"/>
</g>
</svg>
